<svg xmlns="http://www.w3.org/2000/svg" viewBox="0 0 512 512"><circle cx="256" cy="256" r="256" fill="#273554"/><path d="M160.959 366.196l141.573 141.572c104.165-19.129 186.266-101.3 205.287-205.502L353.986 148.433 160.959 366.196z" opacity=".1"/><path fill="#FFF" d="M197.299 86.043c-8.468 0-15.333-6.865-15.333-15.333 0 8.469-6.865 15.333-15.333 15.333 8.468 0 15.333 6.865 15.333 15.333 0-8.468 6.865-15.333 15.333-15.333zM76.296 248.329c-8.468 0-15.333-6.865-15.333-15.333 0 8.468-6.865 15.333-15.333 15.333 8.468 0 15.333 6.865 15.333 15.333 0-8.469 6.865-15.333 15.333-15.333zM254.963 61.709c-13.439 0-24.333-10.894-24.333-24.333 0 13.439-10.895 24.333-24.333 24.333 13.438 0 24.333 10.895 24.333 24.333 0-13.438 10.894-24.333 24.333-24.333zM434.553 169.807c-11.414 0-20.667-9.253-20.667-20.667 0 11.414-9.253 20.667-20.667 20.667 11.414 0 20.667 9.252 20.667 20.667 0-11.414 9.253-20.667 20.667-20.667z"/><g><circle cx="256" cy="256" r="145.52" fill="#46BBEB"/><g fill="#4FFFA8"><path d="M397.55 222.138l-2.379-.885h-11.432l-8.438-6.804-17.69 13.064-14.697-13.064-25.039 4.627-16.059 1.905-2.722 30.21 6.532 28.85H332.3l14.833-2.177 6.396 11.703 6.805 13.608-11.976 10.07 10.07 22.862-1.634 8.981 8.883 6.545C387.996 326.06 401.52 292.61 401.52 256c0-11.66-1.38-22.996-3.97-33.862zM129.715 242.392l9.435 2.177 9.435 6.169 12.702 3.992 6.532 1.633 6.169 2.721-3.266 6.532-10.161 16.331 11.25 13.426 15.967 10.161v9.073l10.524 15.967s-1.089 10.161 0 13.427c1.088 3.267 7.258 20.322 7.258 20.322l6.169 7.983 14.879 1.814-9.436-15.241s13.79-21.048 14.879-21.773c1.088-.726-4.355-9.072-3.266-10.161 1.088-1.089 9.798-10.523 9.798-10.523l9.436-11.977 3.991-15.604-11.975-18.871s-13.427-9.435-13.427-10.523-8.709-10.524-8.709-10.524l-24.314-.726-13.79-4.354-5.081 9.072-11.612-5.807.363-9.588h-9.072l-5.081-7.83 7.621-5.807 15.604 7.984 9.798-6.169 10.524-24.677 9.436-11.976h17.055l2.541-5.806 11.25-5.443 4.718 3.13 5.081-7.485-9.798-13.79-7.621-2.541-2.81 2.639-9.166 8.61-21.411-5.081-2.903 10.161-9.436-11.975 12.338-4.355 13.79 3.629 5.443-5.443 17.419-2.541-14.153-14.878h-16.33L191.77 148.4l-6.532-8.347-15.79-1.041c-30.586 22.667-51.966 57.043-57.525 96.504l11.624 2.002 6.168 4.874zM343.64 165.821v6.532l-19.233 5.443 1.814 13.791-10.887-6.668-10.523 8.482 6.895 10.161 10.524 1.451 17.781-14.152 5.08 6.532s-3.266 7.62 0 10.161c3.267 2.541 16.989 6.532 16.989 6.532v-12.338l-9.368-8.347 6.17-5.08 11.249 9.435-3.629 6.532 21.048 9.798s2.308-2.671 5.669-6.617c-10.568-29.881-30.615-55.279-56.533-72.581l-6.11 22.95 13.064 7.983z"/></g><path d="M327.703 129.352c19.509 24.762 31.149 56.012 31.149 89.981 0 80.368-65.151 145.52-145.519 145.52-26.072 0-50.539-6.863-71.704-18.872 26.646 33.821 67.972 55.538 114.37 55.538 80.368 0 145.52-65.151 145.52-145.52.001-54.295-29.74-101.639-73.816-126.647z" opacity=".1"/><path fill="#4FFFA8" d="M143.833 318.653l-2.203-2.202-6.096 1.25v6l-6.398 3.615a145.758 145.758 0 0 0 9.523 14.749l4.625-.864 9.083-6.5.5-5.916-9.035-4.334v-5.798z"/></g></svg>